<?xml version="1.0" encoding="UTF-8" standalone="no"?>
<!-- Generator: Adobe Illustrator 17.1.0, SVG Export Plug-In . SVG Version: 6.00 Build 0)  -->

<svg
   xmlns:dc="http://purl.org/dc/elements/1.1/"
   xmlns:cc="http://creativecommons.org/ns#"
   xmlns:rdf="http://www.w3.org/1999/02/22-rdf-syntax-ns#"
   xmlns:svg="http://www.w3.org/2000/svg"
   xmlns="http://www.w3.org/2000/svg"
   xmlns:sodipodi="http://sodipodi.sourceforge.net/DTD/sodipodi-0.dtd"
   xmlns:inkscape="http://www.inkscape.org/namespaces/inkscape"
   version="1.1"
   id="Layer_1"
   x="0px"
   y="0px"
   viewBox="0 0 384.96875 444.46875"
   enable-background="new 0 0 1471.4 460.5"
   xml:space="preserve"
   inkscape:version="0.48.4 r9939"
   width="100%"
   height="100%"
   sodipodi:docname="nodeSchoolDenton.svg"><metadata
     id="metadata727"><rdf:RDF><cc:Work
         rdf:about=""><dc:format>image/svg+xml</dc:format><dc:type
           rdf:resource="http://purl.org/dc/dcmitype/StillImage" /><dc:title></dc:title></cc:Work></rdf:RDF></metadata><defs
     id="defs725"><inkscape:perspective
       sodipodi:type="inkscape:persp3d"
       inkscape:vp_x="0 : 230.25 : 1"
       inkscape:vp_y="0 : 1000 : 0"
       inkscape:vp_z="1471.4 : 230.25 : 1"
       inkscape:persp3d-origin="735.7 : 153.5 : 1"
       id="perspective3706" /></defs><sodipodi:namedview
     pagecolor="#ffffff"
     bordercolor="#666666"
     borderopacity="1"
     objecttolerance="10"
     gridtolerance="10"
     guidetolerance="10"
     inkscape:pageopacity="0"
     inkscape:pageshadow="2"
     inkscape:window-width="1658"
     inkscape:window-height="855"
     id="namedview723"
     showgrid="false"
     fit-margin-top="0"
     fit-margin-left="0"
     fit-margin-right="0"
     fit-margin-bottom="0"
     inkscape:zoom="1"
     inkscape:cx="227.61834"
     inkscape:cy="190.8827"
     inkscape:window-x="0"
     inkscape:window-y="0"
     inkscape:window-maximized="0"
     inkscape:current-layer="Layer_1" /><polygon
     points="890.4,122.6 890.4,336.9 704.9,444 519.3,336.9 519.3,122.6 704.9,15.4 "
     id="polygon3"
     transform="translate(-512.46876,-8.25)"
     style="fill:#cadeff" /><circle
     cx="706.5"
     cy="231.39999"
     r="0.5"
     id="circle383"
     sodipodi:cx="706.5"
     sodipodi:cy="231.39999"
     sodipodi:rx="0.5"
     sodipodi:ry="0.5"
     transform="translate(-512.46876,-8.25)"
     style="fill:none" /><g
     id="g385"
     transform="translate(-512.46876,-8.25)"><path
       d="m 801.5,156.4 c 0,-1.3 -1.1,-2.4 -2.4,-2.4 H 610.5 c -1.3,0 -2.4,1.1 -2.4,2.4 0,1.3 1.1,2.4 2.4,2.4 h 188.6 c 1.3,0 2.4,-1.1 2.4,-2.4 z"
       id="path389"
       inkscape:connector-curvature="0"
       style="fill:#0055ff" /><path
       d="M 781.8,87.3 705.9,43.5 c 0,0 0,0 0,0 -0.1,-0.1 -0.2,-0.1 -0.3,-0.1 0,0 0,0 0,0 0,0 0,0 0,0 0,0 -0.1,0 -0.1,0 0,0 -0.1,0 -0.1,0 -0.1,0 -0.2,0 -0.3,0 0,0 0,0 -0.1,0 0,0 -0.1,0 -0.1,0 -0.1,0 -0.3,0 -0.4,0 0,0 0,0 0,0 0,0 0,0 0,0 0,0 0,0 0,0 -0.1,0 -0.2,0.1 -0.3,0.1 0,0 0,0 0,0 l -74.7,43.1 c -0.9,0.5 -1.2,1.6 -0.7,2.5 0.5,0.9 1.7,1.2 2.5,0.7 l 66.4,-38.3 -28.2,36 c -0.6,0.8 -0.5,2 0.3,2.6 0.8,0.6 2,0.5 2.6,-0.3 l 30.8,-39.3 v 38.4 c 0,1 0.8,1.9 1.9,1.9 1.1,0 1.9,-0.8 1.9,-1.9 V 50.5 l 30.8,39.3 c 0.4,0.5 0.9,0.7 1.5,0.7 0.4,0 0.8,-0.1 1.1,-0.4 0.8,-0.6 0.9,-1.8 0.3,-2.6 l -28.2,-36 67.6,39 c 0.3,0.2 0.6,0.2 0.9,0.2 0.6,0 1.3,-0.3 1.6,-0.9 0.4,-0.8 0.1,-2 -0.8,-2.5 z"
       id="path391"
       inkscape:connector-curvature="0"
       style="fill:#0055ff" /><path
       d="m 781.3,370.2 c -0.5,-0.9 -1.7,-1.2 -2.5,-0.7 l -66.3,38.3 28.2,-36 c 0.6,-0.8 0.5,-2 -0.3,-2.6 -0.8,-0.6 -2,-0.5 -2.6,0.3 L 707,408.8 v -38.4 c 0,-1 -0.8,-1.9 -1.9,-1.9 -1.1,0 -1.9,0.8 -1.9,1.9 v 38.4 l -30.8,-39.3 c -0.6,-0.8 -1.8,-0.9 -2.6,-0.3 -0.8,0.6 -0.9,1.8 -0.3,2.6 l 28.2,36 -67.6,-39 c -0.9,-0.5 -2,-0.2 -2.5,0.7 -0.5,0.9 -0.2,2 0.7,2.5 l 75.9,43.8 c 0,0 0,0 0.1,0 0.1,0 0.1,0.1 0.2,0.1 0,0 0,0 0.1,0 0,0 0,0 0.1,0 0,0 0.1,0 0.1,0 0.1,0 0.3,0.1 0.4,0.1 l 0,0 0,0 0,0 c 0,0 0,0 0,0 0.2,0 0.3,0 0.4,-0.1 0,0 0.1,0 0.1,0 0,0 0.1,0 0.1,0 0.1,0 0.1,-0.1 0.2,-0.1 0,0 0,0 0.1,0 l 74.7,-43.1 c 0.7,-0.4 1,-1.6 0.5,-2.5 z"
       id="path393"
       inkscape:connector-curvature="0"
       style="fill:#0055ff" /><circle
       cx="786.29999"
       cy="366.70001"
       r="2.3"
       id="circle395"
       d="m 788.59999,366.70001 c 0,1.27026 -1.02975,2.3 -2.3,2.3 -1.27026,0 -2.3,-1.02974 -2.3,-2.3 0,-1.27025 1.02974,-2.3 2.3,-2.3 1.27025,0 2.3,1.02975 2.3,2.3 z"
       sodipodi:cx="786.29999"
       sodipodi:cy="366.70001"
       sodipodi:rx="2.3"
       sodipodi:ry="2.3"
       style="fill:#0055ff" /><circle
       cx="622.79999"
       cy="366.70001"
       r="2.3"
       id="circle397"
       d="m 625.09999,366.70001 c 0,1.27026 -1.02975,2.3 -2.3,2.3 -1.27026,0 -2.3,-1.02974 -2.3,-2.3 0,-1.27025 1.02974,-2.3 2.3,-2.3 1.27025,0 2.3,1.02975 2.3,2.3 z"
       sodipodi:cx="622.79999"
       sodipodi:cy="366.70001"
       sodipodi:rx="2.3"
       sodipodi:ry="2.3"
       style="fill:#0055ff" /><path
       d="m 638.1,134.6 c 0.8,0 1.4,-0.6 1.4,-1.4 v -7.1 l 5.8,7.6 c 0.4,0.5 0.8,0.9 1.5,0.9 h 0.1 c 0.8,0 1.5,-0.6 1.5,-1.5 v -10.5 c 0,-0.8 -0.6,-1.4 -1.4,-1.4 -0.8,0 -1.4,0.6 -1.4,1.4 v 6.8 L 640,122 c -0.4,-0.5 -0.8,-0.9 -1.5,-0.9 h -0.3 c -0.8,0 -1.5,0.6 -1.5,1.5 v 10.5 c 0,0.9 0.6,1.5 1.4,1.5 z"
       id="path407"
       inkscape:connector-curvature="0"
       style="fill:#0055ff" /><path
       d="m 658,134.7 c 4.1,0 7.1,-3.1 7.1,-6.8 v 0 c 0,-3.8 -2.9,-6.8 -7,-6.8 -4.1,0 -7.1,3.1 -7.1,6.8 v 0 c 0,3.8 2.9,6.8 7,6.8 z m -3.9,-6.8 c 0,-2.3 1.6,-4.1 4,-4.1 2.3,0 4,1.9 4,4.2 v 0 c 0,2.3 -1.6,4.1 -4,4.1 -2.4,-0.1 -4,-1.9 -4,-4.2 l 0,0 z"
       id="path409"
       inkscape:connector-curvature="0"
       style="fill:#0055ff" /><path
       d="m 669.1,134.5 h 3.7 c 4.2,0 7,-2.9 7,-6.6 v 0 c 0,-3.7 -2.9,-6.6 -7,-6.6 h -3.7 c -0.8,0 -1.5,0.6 -1.5,1.5 V 133 c 0.1,0.9 0.7,1.5 1.5,1.5 z m 1.5,-10.6 h 2.2 c 2.4,0 4,1.6 4,4 v 0 c 0,2.3 -1.6,4 -4,4 h -2.2 v -8 z"
       id="path411"
       inkscape:connector-curvature="0"
       style="fill:#0055ff" /><path
       d="m 683.9,134.5 h 7.4 c 0.7,0 1.3,-0.6 1.3,-1.3 0,-0.7 -0.6,-1.3 -1.3,-1.3 h -6 v -2.8 h 5 c 0.7,0 1.3,-0.6 1.3,-1.3 0,-0.7 -0.6,-1.3 -1.3,-1.3 h -5 v -2.7 h 5.9 c 0.7,0 1.3,-0.6 1.3,-1.3 0,-0.7 -0.6,-1.3 -1.3,-1.3 h -7.3 c -0.8,0 -1.5,0.6 -1.5,1.5 V 133 c 0.1,0.9 0.7,1.5 1.5,1.5 z"
       id="path413"
       inkscape:connector-curvature="0"
       style="fill:#0055ff" /><path
       d="m 694.9,133.1 c 1.5,1.1 3.2,1.6 5,1.6 2.9,0 4.9,-1.5 4.9,-4.1 v 0 c 0,-2.3 -1.5,-3.3 -4.2,-4 -2.3,-0.6 -2.9,-0.9 -2.9,-1.7 v 0 c 0,-0.6 0.6,-1.2 1.7,-1.2 0.9,0 1.8,0.3 2.8,0.9 0.2,0.1 0.5,0.2 0.7,0.2 0.8,0 1.4,-0.6 1.4,-1.3 0,-0.6 -0.3,-1 -0.6,-1.2 -1.2,-0.8 -2.6,-1.2 -4.2,-1.2 -2.7,0 -4.6,1.6 -4.6,4 v 0 c 0,2.6 1.7,3.4 4.4,4 2.2,0.6 2.7,0.9 2.7,1.7 v 0 c 0,0.8 -0.7,1.2 -1.9,1.2 -1.3,0 -2.4,-0.5 -3.4,-1.2 -0.2,-0.1 -0.5,-0.3 -0.8,-0.3 -0.8,0 -1.4,0.6 -1.4,1.3 -0.2,0.7 0.1,1.1 0.4,1.3 z"
       id="path415"
       inkscape:connector-curvature="0"
       style="fill:#0055ff" /><path
       d="m 713.4,134.7 c 2.1,0 3.5,-0.6 4.7,-1.7 0.3,-0.2 0.5,-0.6 0.5,-1 0,-0.7 -0.6,-1.3 -1.4,-1.3 -0.3,0 -0.6,0.1 -0.9,0.3 -0.8,0.7 -1.6,1 -2.9,1 -2.3,0 -3.8,-1.9 -3.8,-4.2 v 0 c 0,-2.3 1.6,-4.1 3.8,-4.1 1,0 1.9,0.3 2.7,0.9 0.2,0.1 0.5,0.3 0.9,0.3 0.8,0 1.4,-0.6 1.4,-1.4 0,-0.5 -0.3,-0.9 -0.6,-1.2 -1.1,-0.8 -2.4,-1.3 -4.4,-1.3 -4.1,0 -6.9,3.1 -6.9,6.8 v 0 c 0.2,3.9 3.1,6.9 6.9,6.9 z"
       id="path417"
       inkscape:connector-curvature="0"
       style="fill:#0055ff" /><path
       d="m 722.7,134.6 c 0.8,0 1.5,-0.6 1.5,-1.5 v -4 h 5.4 v 4 c 0,0.8 0.6,1.5 1.5,1.5 0.8,0 1.5,-0.6 1.5,-1.5 v -10.5 c 0,-0.8 -0.6,-1.5 -1.5,-1.5 -0.8,0 -1.5,0.6 -1.5,1.5 v 3.9 h -5.4 v -3.9 c 0,-0.8 -0.6,-1.5 -1.5,-1.5 -0.8,0 -1.5,0.6 -1.5,1.5 v 10.5 c 0,0.9 0.6,1.5 1.5,1.5 z"
       id="path419"
       inkscape:connector-curvature="0"
       style="fill:#0055ff" /><path
       d="m 742,134.7 c 4.1,0 7,-3.1 7,-6.8 v 0 c 0,-3.8 -2.9,-6.8 -7,-6.8 -4.1,0 -7.1,3.1 -7.1,6.8 v 0 c 0.1,3.8 3,6.8 7.1,6.8 z m -4,-6.8 c 0,-2.3 1.6,-4.1 4,-4.1 2.3,0 4,1.9 4,4.2 v 0 c 0,2.3 -1.6,4.1 -4,4.1 -2.3,-0.1 -4,-1.9 -4,-4.2 l 0,0 z"
       id="path421"
       inkscape:connector-curvature="0"
       style="fill:#0055ff" /><path
       d="m 758.1,134.7 c 4.1,0 7.1,-3.1 7.1,-6.8 v 0 c 0,-3.8 -2.9,-6.8 -7,-6.8 -4.1,0 -7.1,3.1 -7.1,6.8 v 0 c 0,3.8 2.9,6.8 7,6.8 z m -4,-6.8 c 0,-2.3 1.6,-4.1 4,-4.1 2.3,0 4,1.9 4,4.2 v 0 c 0,2.3 -1.6,4.1 -4,4.1 -2.3,-0.1 -4,-1.9 -4,-4.2 l 0,0 z"
       id="path423"
       inkscape:connector-curvature="0"
       style="fill:#0055ff" /><path
       d="m 769.2,134.5 h 6.8 c 0.7,0 1.3,-0.6 1.3,-1.3 0,-0.7 -0.6,-1.3 -1.3,-1.3 h -5.4 v -9.2 c 0,-0.8 -0.6,-1.5 -1.5,-1.5 -0.8,0 -1.5,0.6 -1.5,1.5 V 133 c 0.1,0.9 0.8,1.5 1.6,1.5 z"
       id="path425"
       inkscape:connector-curvature="0"
       style="fill:#0055ff" /></g><path
     style="fill:none;stroke:#0055ff;stroke-width:12.27113247;stroke-linecap:butt;stroke-linejoin:miter;stroke-miterlimit:4;stroke-opacity:1;stroke-dasharray:none"
     d="M 189.70497,5.298198 378.829,114.66451 378.71789,329.73049 192.61916,437.38877 6.1399868,329.72477 l 0,-215.06581 L 195.85882,5.343759"
     id="path3724"
     inkscape:connector-curvature="0"
     sodipodi:nodetypes="ccccccc" /></svg>